<svg width="32" height="32" viewBox="0 0 32 32" fill="none" xmlns="http://www.w3.org/2000/svg">
<g clip-path="url(#clip0_8333_9179)">
<path d="M25.1251 0.998434C25.4063 1.22293 25.4446 1.53296 25.5067 1.87026C25.5226 1.95031 25.5226 1.95031 25.5388 2.03197C25.5723 2.20163 25.6046 2.37149 25.6368 2.5414C25.6699 2.71193 25.7033 2.8824 25.7368 3.05284C25.7576 3.15872 25.778 3.26466 25.7982 3.37065C25.8445 3.6294 25.8445 3.6294 25.9376 3.87343C25.9708 3.8516 26.004 3.82977 26.0382 3.80727C26.0823 3.77883 26.1265 3.75039 26.172 3.72109C26.2155 3.69281 26.259 3.66453 26.3038 3.6354C26.6447 3.44565 27.0373 3.44751 27.4103 3.53676C27.8652 3.69419 28.1488 3.95186 28.381 4.37221C28.5697 4.81007 28.5521 5.21027 28.3829 5.65078C28.3093 5.82494 28.2596 5.92641 28.1251 6.06094C28.5259 6.16647 28.9269 6.26113 29.3338 6.33999C29.4118 6.35517 29.4897 6.37036 29.57 6.38601C29.7307 6.417 29.8916 6.44742 30.0525 6.47732C30.1685 6.50022 30.1685 6.50022 30.287 6.52358C30.3565 6.53679 30.426 6.55 30.4976 6.56361C30.7132 6.6315 30.838 6.71719 31.0001 6.87344C31.0715 7.08332 31.0908 7.18999 30.9935 7.39143C30.8429 7.607 30.668 7.78147 30.4799 7.96438C30.4401 8.00355 30.4004 8.04271 30.3594 8.08307C30.2734 8.16777 30.1873 8.25234 30.101 8.33678C29.9646 8.4704 29.8288 8.60452 29.693 8.7388C29.3072 9.12042 28.9209 9.50152 28.5333 9.88134C28.296 10.1139 28.0596 10.3474 27.8239 10.5815C27.7338 10.6705 27.6434 10.7592 27.5526 10.8476C27.426 10.9709 27.3006 11.0953 27.1754 11.22C27.1186 11.2746 27.1186 11.2746 27.0605 11.3302C26.9448 11.4428 26.9448 11.4428 26.8126 11.6234C26.8056 11.7908 26.8056 11.7908 26.8751 11.9359C26.9043 12.0127 26.9336 12.0895 26.9637 12.1686C27.0005 12.259 27.0374 12.3494 27.0743 12.4398C27.6164 13.809 28.0009 15.2717 28.015 16.7519C28.0156 16.805 28.0162 16.8582 28.0168 16.913C28.0322 18.5944 27.9069 20.1412 27.3751 21.7484C27.3588 21.7984 27.3424 21.8484 27.3256 21.8999C26.5207 24.3199 24.9608 26.5624 22.9376 28.1234C22.9031 28.1502 22.8687 28.1769 22.8332 28.2045C21.0666 29.5664 18.9602 30.5261 16.7501 30.8734C16.6522 30.8897 16.6522 30.8897 16.5523 30.9063C15.8804 31.0083 15.2177 31.0233 14.5392 31.0219C14.4815 31.0219 14.4238 31.0218 14.3644 31.0218C13.4292 31.0197 12.5393 30.959 11.6251 30.7484C11.5733 30.7371 11.5216 30.7257 11.4682 30.714C8.50938 30.0523 5.73308 28.3441 3.8751 25.9359C3.84836 25.9015 3.82162 25.867 3.79407 25.8315C2.43216 24.065 1.47236 21.9585 1.1251 19.7484C1.11424 19.6831 1.10338 19.6178 1.0922 19.5505C0.990443 18.8799 0.975152 18.2186 0.976658 17.5414C0.976692 17.4838 0.976726 17.4262 0.976761 17.3668C0.980621 15.9391 1.17554 14.6071 1.6251 13.2484C1.64144 13.1985 1.65779 13.1485 1.67463 13.097C2.4795 10.677 4.03935 8.43445 6.0626 6.87344C6.09706 6.8467 6.13152 6.81996 6.16703 6.79241C7.93354 5.4305 10.04 4.4707 12.2501 4.12343C12.3154 4.11258 12.3807 4.10172 12.448 4.09054C13.1186 3.98878 13.7799 3.97349 14.4571 3.975C14.5148 3.97503 14.5724 3.97507 14.6318 3.9751C16.4096 3.97991 18.4897 4.21815 20.0618 5.13326C20.2198 5.19942 20.278 5.17906 20.4376 5.12344C20.5771 4.99826 20.7063 4.87259 20.8357 4.73768C20.8948 4.67731 20.8948 4.67731 20.955 4.61573C21.0405 4.52831 21.1257 4.44069 21.2108 4.35289C21.3456 4.21396 21.4811 4.07578 21.6169 3.9378C22.0029 3.54547 22.3882 3.15241 22.7715 2.75739C23.006 2.5158 23.2419 2.27561 23.4787 2.03625C23.5686 1.94484 23.658 1.85291 23.7468 1.76046C23.8713 1.63102 23.9974 1.50343 24.124 1.3761C24.1602 1.33763 24.1964 1.29916 24.2336 1.25952C24.5053 0.991697 24.7459 0.920649 25.1251 0.998434Z" fill="#28A745"/>
<path d="M19.8124 8.43773C19.8576 8.55597 19.8576 8.55597 19.8876 8.69872C19.8985 8.75048 19.9095 8.80224 19.9208 8.85558C19.9314 8.90976 19.9421 8.96394 19.953 9.01976C19.9646 9.07322 19.9762 9.12667 19.9882 9.18175C20.044 9.45466 20.0869 9.66645 19.9999 9.93773C19.8193 10.1733 19.6043 10.3767 19.3944 10.5862C19.3382 10.6449 19.282 10.7036 19.2241 10.7641C19.1692 10.8193 19.1143 10.8745 19.0578 10.9314C19.0077 10.9821 18.9577 11.0328 18.9062 11.085C18.7499 11.1877 18.7499 11.1877 18.5562 11.179C18.3323 11.1126 18.1417 11.0076 17.9413 10.8909C17.2116 10.4855 16.4429 10.2816 15.6249 10.1252C15.5766 10.1145 15.5284 10.1038 15.4786 10.0928C13.9748 9.8209 12.397 10.1809 11.0624 10.8752C10.9939 10.9107 10.9254 10.9461 10.8549 10.9827C9.23228 11.8808 7.88609 13.4395 7.36268 15.239C7.34609 15.3046 7.32949 15.3702 7.31239 15.4377C7.29574 15.4995 7.29574 15.4995 7.27876 15.5624C7.06233 16.3789 7.0202 17.1587 7.06239 18.0002C7.06552 18.0705 7.06552 18.0705 7.06871 18.1423C7.16896 20.0157 8.1104 21.7416 9.44203 23.0261C10.3003 23.7847 11.3364 24.3695 12.4374 24.6877C12.4998 24.706 12.4998 24.706 12.5635 24.7246C13.7385 25.0548 15.0734 25.0868 16.2499 24.7502C16.3294 24.729 16.4089 24.7077 16.4909 24.6858C18.4024 24.1498 20.017 22.9208 20.9999 21.1877C21.2703 20.6936 21.4716 20.1803 21.6444 19.6448C21.6596 19.5981 21.6747 19.5514 21.6904 19.5032C22.2012 17.8411 22.0541 15.8669 21.2499 14.3173C21.1598 14.1485 21.0694 13.9801 20.9743 13.8141C20.8553 13.6025 20.8124 13.4998 20.8124 13.2502C20.966 13.0368 21.1484 12.8518 21.332 12.6637C21.421 12.5714 21.5066 12.4764 21.5924 12.3811C22.0162 11.9447 22.0162 11.9447 22.3233 11.9251C22.5139 11.9575 22.69 12.0072 22.8749 12.0627C22.9971 12.0753 23.1195 12.086 23.2421 12.094C23.4307 12.1309 23.5324 12.1587 23.671 12.293C23.779 12.4609 23.8577 12.6294 23.9374 12.8127C23.967 12.8783 23.967 12.8783 23.9972 12.9452C25.0491 15.2823 25.4368 18.0964 24.5624 20.5627C24.5472 20.6073 24.5321 20.6518 24.5165 20.6977C23.9526 22.3535 23.0852 23.7398 21.8749 25.0002C21.8415 25.0351 21.808 25.0699 21.7736 25.1058C20.6621 26.2435 19.2458 27.0003 17.7499 27.5002C17.7035 27.5161 17.6571 27.5319 17.6094 27.5483C15.0662 28.4058 12.2456 28.0973 9.84477 26.9542C8.09694 26.0771 6.60277 24.7132 5.56239 23.0627C5.52456 23.0029 5.52456 23.0029 5.48597 22.9419C5.0562 22.2508 4.76315 21.5184 4.49989 20.7502C4.48377 20.7034 4.46764 20.6566 4.45103 20.6083C3.89071 18.9452 3.78072 17.0234 4.18739 15.3127C4.20552 15.2358 4.20552 15.2358 4.22401 15.1573C4.70692 13.1795 5.6673 11.5276 7.06239 10.0627C7.10396 10.0179 7.14553 9.97298 7.18837 9.92674C10.29 6.6752 16.0626 5.93788 19.8124 8.43773Z" fill="#DFF9E4"/>
<path d="M16.2499 10.1869C16.3692 10.2188 16.3692 10.2188 16.4909 10.2514C17.1308 10.4311 17.7193 10.7024 18.3124 10.9994C18.3844 11.0353 18.4565 11.0713 18.5307 11.1083C18.5824 11.1342 18.6341 11.1602 18.6874 11.1869C18.4204 11.5064 18.1403 11.8036 17.8435 12.0954C17.7981 12.1403 17.7528 12.1852 17.706 12.2314C17.6082 12.3282 17.5103 12.4249 17.4123 12.5216C17.2036 12.7276 16.9956 12.9342 16.7875 13.1407C16.4008 13.5246 16.0139 13.9082 15.6259 14.2908C15.3553 14.5577 15.0855 14.8253 14.8161 15.0935C14.7137 15.1952 14.611 15.2966 14.508 15.3977C14.3638 15.5393 14.2206 15.6819 14.0776 15.8247C14.0353 15.8658 13.9929 15.9069 13.9493 15.9493C13.6182 16.2833 13.3389 16.6944 13.3397 17.183C13.3596 17.5942 13.5126 17.9539 13.8085 18.2426C14.1712 18.5256 14.4857 18.6618 14.9499 18.6466C15.4987 18.5769 15.903 18.2038 16.2741 17.8232C16.3224 17.775 16.3706 17.7268 16.4203 17.6771C16.578 17.5192 16.7345 17.3603 16.891 17.2013C17.0008 17.091 17.1106 16.9807 17.2204 16.8706C17.5082 16.5816 17.795 16.2917 18.0817 16.0016C18.3747 15.7052 18.6688 15.4098 18.9628 15.1143C19.5385 14.5352 20.1133 13.9551 20.6874 13.3744C21.0334 13.7136 21.0334 13.7136 21.1447 13.9464C21.1678 13.9945 21.1909 14.0426 21.2147 14.0921C21.2379 14.1427 21.2611 14.1934 21.2851 14.2455C21.3096 14.2982 21.3341 14.351 21.3593 14.4053C21.5589 14.8456 21.7011 15.2784 21.8124 15.7494C21.8309 15.8118 21.8495 15.8741 21.8686 15.9384C22.1469 16.9726 22.1148 18.2247 21.8124 19.2494C21.7983 19.2985 21.7842 19.3475 21.7696 19.3981C21.1727 21.4396 19.9728 23.0563 18.1076 24.1021C17.3186 24.5291 16.5057 24.7685 15.6249 24.9369C15.5767 24.9476 15.5285 24.9583 15.4788 24.9693C13.7058 25.2897 11.7981 24.7271 10.3185 23.7553C9.91453 23.4697 9.5473 23.1507 9.1874 22.8119C9.1497 22.7782 9.11199 22.7446 9.07315 22.7099C7.81744 21.5422 7.07885 19.6873 6.9999 17.9994C6.99692 17.9479 6.99394 17.8964 6.99087 17.8433C6.92406 16.5553 7.15555 15.3343 7.7499 14.1869C7.77085 14.1453 7.7918 14.1037 7.81338 14.0608C8.13496 13.4278 8.51704 12.8935 8.9999 12.3744C9.05002 12.3192 9.10013 12.264 9.15176 12.2072C10.0296 11.2818 11.2162 10.6024 12.4374 10.2494C12.479 10.2372 12.5206 10.2251 12.5635 10.2125C13.7386 9.88229 15.0734 9.85038 16.2499 10.1869Z" fill="#28A745"/>
<path d="M25.125 1.00131C25.4062 1.22581 25.4445 1.53584 25.5066 1.87314C25.5225 1.95319 25.5225 1.95319 25.5387 2.03485C25.5722 2.20451 25.6045 2.37437 25.6367 2.54428C25.6698 2.71481 25.7032 2.88528 25.7367 3.05572C25.7575 3.1616 25.7779 3.26754 25.7981 3.37353C25.8444 3.63228 25.8444 3.63228 25.9375 3.87631C25.9707 3.85448 26.0039 3.83265 26.0381 3.81015C26.0822 3.78171 26.1264 3.75327 26.1719 3.72397C26.2154 3.69569 26.2589 3.66741 26.3037 3.63828C26.6446 3.44853 27.0372 3.45039 27.4102 3.53964C27.8651 3.69707 28.1487 3.95474 28.3809 4.37509C28.5696 4.81295 28.552 5.21314 28.3828 5.65366C28.3092 5.82782 28.2595 5.92929 28.125 6.06381C28.5258 6.16935 28.9268 6.26401 29.3337 6.34287C29.4117 6.35805 29.4896 6.37324 29.5699 6.38889C29.7306 6.41988 29.8915 6.4503 30.0524 6.4802C30.1684 6.5031 30.1684 6.5031 30.2869 6.52646C30.3564 6.53967 30.4259 6.55288 30.4975 6.56648C30.7131 6.63438 30.8379 6.72007 31 6.87631C31.0714 7.08618 31.0909 7.1928 30.9933 7.39408C30.8431 7.60965 30.6693 7.7865 30.483 7.97101C30.4435 8.01059 30.4041 8.05016 30.3634 8.09094C30.2332 8.22136 30.1026 8.35133 29.9719 8.48129C29.8809 8.57226 29.7899 8.66325 29.6989 8.75426C29.5081 8.94495 29.3171 9.13543 29.1259 9.32575C28.8819 9.5687 28.6383 9.81206 28.3948 10.0556C28.2068 10.2436 28.0186 10.4314 27.8304 10.6192C27.7406 10.7088 27.6508 10.7985 27.5611 10.8882C26.7085 11.7398 26.7085 11.7398 26.3479 12.0398C26.1964 12.1737 26.0653 12.3245 25.9333 12.4774C25.6933 12.6491 25.4712 12.6402 25.19 12.5996C24.9655 12.5564 24.7426 12.5082 24.5195 12.4583C24.3573 12.4235 24.195 12.3887 24.0327 12.3539C23.876 12.3197 23.7192 12.2855 23.5625 12.2513C23.3218 12.1995 23.0809 12.1488 22.8398 12.099C22.7894 12.088 22.7389 12.077 22.687 12.0657C22.3704 11.9986 22.3704 11.9986 22.0625 12.0638C21.9278 12.1717 21.9278 12.1717 21.7942 12.3117C21.741 12.365 21.6879 12.4184 21.6331 12.4734C21.5747 12.533 21.5162 12.5926 21.4578 12.6521C21.396 12.7146 21.334 12.777 21.272 12.8394C21.1386 12.9738 21.0055 13.1085 20.8726 13.2434C20.6622 13.457 20.451 13.6697 20.2397 13.8824C19.6766 14.4491 19.1146 15.0168 18.5532 15.585C18.1845 15.9582 17.8153 16.3309 17.4453 16.7028C17.2354 16.9138 17.0263 17.1255 16.8177 17.3378C16.6872 17.4701 16.5561 17.6018 16.4249 17.7334C16.3358 17.823 16.2475 17.9134 16.1593 18.0038C15.7958 18.3662 15.4636 18.6182 14.9553 18.7242C14.4906 18.7234 14.1095 18.5842 13.759 18.2735C13.4268 17.9101 13.2939 17.5406 13.2815 17.0526C13.3879 16.4477 13.755 16.0799 14.1828 15.666C14.2464 15.6032 14.31 15.5404 14.3735 15.4776C14.5096 15.3431 14.6461 15.2091 14.783 15.0755C14.9995 14.8642 15.2147 14.6515 15.4297 14.4386C16.0022 13.8721 16.5765 13.3072 17.1515 12.7432C17.53 12.3719 17.9077 11.9999 18.2841 11.6265C18.4977 11.4147 18.7124 11.2042 18.928 10.9945C19.0617 10.8639 19.1943 10.7324 19.3267 10.6005C19.3883 10.5395 19.4503 10.479 19.5127 10.419C19.8828 10.0884 19.8828 10.0884 20.0087 9.63689C19.9735 9.53884 19.9735 9.53884 19.9375 9.43881C19.9278 9.38719 19.9182 9.33556 19.9082 9.28237C19.8931 9.21086 19.8931 9.21086 19.8778 9.13791C19.8606 9.05562 19.8606 9.05562 19.8431 8.97166C19.8309 8.91377 19.8187 8.85588 19.8062 8.79624C19.7804 8.67149 19.7547 8.54673 19.729 8.42197C19.6887 8.22687 19.6483 8.03183 19.6072 7.83692C19.5674 7.64771 19.5285 7.45832 19.4897 7.26889C19.4711 7.18206 19.4711 7.18206 19.4521 7.09347C19.3097 6.38766 19.3097 6.38766 19.5122 6.0725C19.5432 6.04393 19.5741 6.01536 19.606 5.98593C19.6404 5.95294 19.6749 5.91995 19.7104 5.88596C19.7467 5.85313 19.783 5.8203 19.8203 5.78647C19.891 5.72032 19.9614 5.654 20.0317 5.5875C20.0835 5.53854 20.0835 5.53854 20.1364 5.48859C20.2402 5.38596 20.334 5.28074 20.428 5.16915C20.989 4.52366 21.6085 3.92693 22.21 3.31954C22.437 3.09029 22.6634 2.86052 22.8885 2.62943C23.1074 2.40472 23.3277 2.18142 23.549 1.95905C23.6327 1.87441 23.716 1.78928 23.7988 1.70367C23.9145 1.58412 24.0319 1.46646 24.1499 1.34909C24.2002 1.29592 24.2002 1.29592 24.2515 1.24167C24.5157 0.984439 24.7608 0.930264 25.125 1.00131Z" fill="#1F7634"/>
<path d="M16.375 13.3746C16.3401 13.6163 16.2352 13.7232 16.0627 13.8908C15.9832 13.9687 15.9832 13.9687 15.9021 14.0483C15.8444 14.104 15.7867 14.1597 15.7273 14.2171C15.6677 14.2756 15.6081 14.3342 15.5486 14.3928C15.2962 14.6412 15.0427 14.8884 14.7886 15.1352C14.6331 15.2864 14.4783 15.4383 14.324 15.5907C14.2371 15.6761 14.1493 15.7606 14.0615 15.845C13.6961 16.2062 13.4457 16.5357 13.3396 17.0443C13.3403 17.4596 13.4442 17.7854 13.6875 18.1246C14.0095 18.4388 14.3421 18.6246 14.793 18.652C15.4888 18.6271 15.9342 18.1702 16.3923 17.6937C16.4512 17.6338 16.5101 17.574 16.5691 17.5143C16.7227 17.3585 16.8754 17.2018 17.0278 17.0448C17.2731 16.7924 17.5193 16.5409 17.7663 16.2902C17.8521 16.2027 17.9373 16.1145 18.0225 16.0263C18.0743 15.9735 18.1261 15.9208 18.1794 15.8664C18.2249 15.8196 18.2703 15.7728 18.3171 15.7245C18.4375 15.6246 18.4375 15.6246 18.625 15.6246C19.0981 16.6158 19.1654 17.7877 18.8362 18.836C18.536 19.6235 18.1699 20.2263 17.5625 20.8121C17.5229 20.8536 17.4834 20.8951 17.4426 20.9378C16.616 21.7499 15.3917 22.0191 14.2752 22.0191C13.1744 22.0006 12.1172 21.503 11.3464 20.7269C11.294 20.6725 11.2415 20.6181 11.1875 20.5621C11.146 20.5226 11.1045 20.483 11.0618 20.4422C10.3173 19.6844 9.97992 18.5336 9.96875 17.4996C9.9748 16.9399 10.0358 16.459 10.25 15.9371C10.2664 15.897 10.2829 15.8569 10.2998 15.8157C10.575 15.1648 10.9309 14.6757 11.4375 14.1871C11.4771 14.1456 11.5166 14.1041 11.5574 14.0614C12.8112 12.8297 14.8262 12.7241 16.375 13.3746Z" fill="#DFF9E4"/>
<path d="M29.4957 6.36549C29.641 6.39469 29.7865 6.42266 29.9321 6.45064C30.0254 6.46941 30.1187 6.48825 30.2119 6.50716C30.255 6.51525 30.2981 6.52333 30.3425 6.53166C30.6197 6.5898 30.7984 6.67552 31 6.87508C31.0714 7.08495 31.0909 7.19157 30.9932 7.39285C30.8431 7.60842 30.6693 7.78527 30.483 7.96978C30.4238 8.02914 30.4238 8.02914 30.3634 8.08971C30.2332 8.22013 30.1026 8.3501 29.9719 8.48006C29.8809 8.57103 29.7899 8.66202 29.6989 8.75303C29.5081 8.94372 29.3171 9.1342 29.1259 9.32452C28.8819 9.56747 28.6383 9.81083 28.3948 10.0543C28.2068 10.2424 28.0186 10.4302 27.8304 10.618C27.7406 10.7076 27.6508 10.7973 27.5611 10.8869C26.7085 11.7386 26.7085 11.7386 26.3479 12.0386C26.1964 12.1725 26.0653 12.3233 25.9333 12.4762C25.6933 12.6478 25.4712 12.639 25.19 12.5984C24.9655 12.5552 24.7426 12.5071 24.5195 12.4571C24.3574 12.422 24.1953 12.3869 24.0332 12.3519C23.9138 12.3258 23.9138 12.3258 23.792 12.2992C23.585 12.2549 23.3778 12.2133 23.1699 12.1737C23.0834 12.1571 23.0834 12.1571 22.995 12.1403C22.8887 12.1202 22.7824 12.1004 22.676 12.081C22.3262 12.0138 22.3262 12.0138 22.1875 11.8751C22.9267 11.1344 23.6661 10.3939 24.4057 9.65365C24.7491 9.30994 25.0924 8.96617 25.4356 8.62226C25.7347 8.32259 26.0338 8.02302 26.3331 7.72359C26.4916 7.56497 26.6501 7.4063 26.8085 7.24749C26.9851 7.07042 27.1619 6.89358 27.3387 6.71677C27.3914 6.66382 27.4442 6.61086 27.4985 6.5563C27.5465 6.50835 27.5946 6.46041 27.644 6.41102C27.6859 6.36913 27.7277 6.32725 27.7708 6.2841C28.1562 5.92713 29.0178 6.26867 29.4957 6.36549Z" fill="#1A4D27"/>
<path d="M25.1249 1.00137C25.4024 1.22433 25.4459 1.53055 25.5109 1.86441C25.5272 1.94357 25.5272 1.94357 25.5439 2.02432C25.5666 2.13555 25.5889 2.24686 25.6108 2.35826C25.6443 2.52818 25.6795 2.69769 25.7149 2.86722C25.7368 2.97564 25.7587 3.08408 25.7804 3.19254C25.7961 3.26814 25.7961 3.26814 25.8122 3.34527C25.8214 3.39303 25.8306 3.44079 25.8401 3.49001C25.8483 3.53153 25.8566 3.57306 25.8651 3.61584C25.8827 3.85928 25.8596 4.06034 25.7159 4.26134C25.6531 4.32373 25.6531 4.32373 25.589 4.38739C25.541 4.43576 25.4931 4.48413 25.4437 4.53397C25.3907 4.5858 25.3378 4.63764 25.2832 4.69104C25.2277 4.74657 25.1723 4.8021 25.1151 4.85931C24.9633 5.0112 24.8105 5.16211 24.6576 5.31287C24.4978 5.47071 24.3389 5.62944 24.1799 5.78807C23.8788 6.08818 23.577 6.38748 23.2748 6.68649C22.9308 7.02702 22.5876 7.36844 22.2446 7.70993C21.539 8.41224 20.8323 9.11342 20.1249 9.81387C20.0043 9.63291 19.9717 9.53989 19.9303 9.33267C19.9182 9.27325 19.9061 9.21383 19.8936 9.1526C19.881 9.08852 19.8684 9.02443 19.8554 8.9584C19.8282 8.82282 19.8009 8.68724 19.7736 8.55167C19.7596 8.48171 19.7456 8.41176 19.7311 8.33969C19.6879 8.12892 19.6421 7.9189 19.5954 7.70889C19.5807 7.642 19.566 7.5751 19.5509 7.50618C19.5227 7.37806 19.494 7.25005 19.4647 7.12218C19.3939 6.79562 19.3344 6.51529 19.4374 6.18887C19.5495 6.03672 19.6804 5.9131 19.8202 5.78653C19.8909 5.72038 19.9613 5.65406 20.0316 5.58755C20.0834 5.5386 20.0834 5.5386 20.1363 5.48865C20.2402 5.38601 20.3339 5.2808 20.4279 5.1692C20.9889 4.52372 21.6084 3.92699 22.2099 3.3196C22.4369 3.09035 22.6633 2.86058 22.8884 2.62949C23.1073 2.40478 23.3276 2.18148 23.5489 1.95911C23.6326 1.87447 23.7159 1.78934 23.7987 1.70372C23.9144 1.58418 24.0318 1.46652 24.1498 1.34915C24.2001 1.29598 24.2001 1.29598 24.2514 1.24173C24.5155 0.98456 24.7608 0.930163 25.1249 1.00137Z" fill="#1A4D27"/>
</g>
<defs>
<clipPath id="clip0_8333_9179">
<rect width="32" height="32" fill="white"/>
</clipPath>
</defs>
</svg>
