<svg width="43" height="43" viewBox="0 0 43 43" fill="none" xmlns="http://www.w3.org/2000/svg">
<mask id="mask0_388_1160" style="mask-type:luminance" maskUnits="userSpaceOnUse" x="3" y="7" width="38" height="29">
<path d="M25.8527 34.4547C31.3276 28.5811 33.868 20.4573 34.6927 17.2391C35.3971 20.7922 31.8624 29.8327 30.0438 33.4203C32.9641 35.4232 36.6828 32.0711 38.6635 27.7925C40.6442 23.5135 41.1007 17.2511 35.9341 10.0168C31.6143 11.8047 28.7341 14.2313 26.8324 16.4225C27.8305 19.3779 27.6687 23.4179 27.318 24.611C26.8864 21.5743 26.1167 19.3174 25.4741 18.0401C23.0386 13.1979 13.8931 7.31666 3.57482 7.65096C2.77891 17.6482 3.47484 37.4706 22.0408 35.2378C21.272 28.1095 13.996 16.6615 10.3199 12.8106C17.5549 17.389 24.0231 30.4086 25.8527 34.4547Z" fill="white"/>
</mask>
<g mask="url(#mask0_388_1160)">
<path d="M25.8527 34.4547C31.3276 28.5811 33.868 20.4573 34.6927 17.2391C35.3971 20.7922 31.8624 29.8327 30.0438 33.4203C32.9641 35.4232 36.6828 32.0711 38.6635 27.7925C40.6442 23.5135 41.1007 17.2511 35.9341 10.0168C31.6143 11.8047 28.7341 14.2313 26.8324 16.4225C27.8305 19.3779 27.6687 23.4179 27.318 24.611C26.8864 21.5743 26.1167 19.3174 25.4741 18.0401C23.0386 13.1979 13.8931 7.31666 3.57482 7.65096C2.77891 17.6482 3.47484 37.4706 22.0408 35.2378C21.272 28.1095 13.996 16.6615 10.3199 12.8106C17.5549 17.389 24.0231 30.4086 25.8527 34.4547Z" fill="url(#paint0_linear_388_1160)"/>
</g>
<defs>
<linearGradient id="paint0_linear_388_1160" x1="16.142" y1="35.2456" x2="24.4893" y2="6.67299" gradientUnits="userSpaceOnUse">
<stop stop-color="#2B6F31"/>
<stop offset="1" stop-color="#61C33D"/>
</linearGradient>
</defs>
</svg>
